<?xml version="1.0" standalone="no"?>
<!DOCTYPE svg PUBLIC "-//W3C//DTD SVG 20010904//EN"
 "http://www.w3.org/TR/2001/REC-SVG-20010904/DTD/svg10.dtd">
<svg version="1.0" xmlns="http://www.w3.org/2000/svg"
 width="380.000000pt" height="380.000000pt" viewBox="0 0 380.000000 380.000000"
 preserveAspectRatio="xMidYMid meet">
<metadata>
Created by potrace 1.14, written by Peter Selinger 2001-2017
</metadata>
<g transform="translate(0.000000,380.000000) scale(0.100000,-0.100000)"
fill="#000000" stroke="none">
<path d="M203 3790 c-49 -10 -112 -41 -135 -67 -10 -10 -28 -41 -40 -68 -23
-50 -23 -53 -26 -552 l-3 -503 600 0 601 0 0 600 0 600 -477 -1 c-263 -1 -497
-5 -520 -9z"/>
<path d="M1300 3200 l0 -600 600 0 600 0 0 600 0 600 -600 0 -600 0 0 -600z"/>
<path d="M2600 3201 l0 -601 601 0 600 0 -3 503 c-3 501 -3 502 -26 554 -29
62 -52 85 -117 115 -50 23 -52 23 -552 26 l-503 3 0 -600z"/>
<path d="M0 1900 l0 -600 600 0 600 0 0 600 0 600 -600 0 -600 0 0 -600z"/>
<path d="M1300 1900 l0 -600 600 0 600 0 0 600 0 600 -600 0 -600 0 0 -600z"/>
<path d="M2600 1900 l0 -600 600 0 600 0 0 600 0 600 -600 0 -600 0 0 -600z"/>
<path d="M2 698 c3 -501 3 -503 26 -553 30 -65 53 -88 115 -117 52 -23 53 -23
555 -26 l502 -3 0 600 0 601 -601 0 -600 0 3 -502z"/>
<path d="M1300 600 l0 -600 600 0 600 0 0 600 0 600 -600 0 -600 0 0 -600z"/>
<path d="M2600 599 l0 -600 503 3 c501 3 502 3 554 26 62 29 85 52 115 117 23
50 23 52 26 553 l3 502 -600 0 -601 0 0 -601z"/>
</g>
</svg>
