<?xml version="1.0" standalone="no"?>
<!DOCTYPE svg PUBLIC "-//W3C//DTD SVG 20010904//EN"
 "http://www.w3.org/TR/2001/REC-SVG-20010904/DTD/svg10.dtd">
<svg version="1.0" xmlns="http://www.w3.org/2000/svg"
 width="1024.000000pt" height="1024.000000pt" viewBox="0 0 1024.000000 1024.000000"
 preserveAspectRatio="xMidYMid meet">
<metadata>
Created by potrace 1.14, written by Peter Selinger 2001-2017
</metadata>
<g transform="translate(0.000000,1024.000000) scale(0.100000,-0.100000)"
fill="#000000" stroke="none">
<path d="M8845 9045 c-148 -32 -432 -182 -610 -322 -16 -13 -34 -27 -40 -31
-5 -4 -43 -34 -84 -67 -41 -33 -104 -84 -140 -113 -71 -56 -658 -625 -730
-707 -24 -27 -76 -84 -115 -125 -39 -41 -83 -91 -97 -110 -15 -19 -46 -55 -70
-80 -23 -25 -64 -70 -90 -101 -26 -31 -59 -69 -72 -83 -14 -15 -49 -56 -79
-92 -29 -36 -93 -114 -141 -172 -97 -117 -168 -208 -265 -341 -35 -47 -67 -86
-72 -86 -5 0 -42 28 -82 61 -72 60 -295 228 -441 331 -223 158 -453 221 -707
194 -124 -14 -239 -35 -267 -50 -10 -5 -40 -17 -68 -27 -63 -21 -264 -120
-285 -139 -9 -8 -22 -15 -28 -15 -19 0 -182 -161 -228 -226 -73 -102 -145
-291 -183 -482 -55 -272 -78 -567 -106 -1377 -13 -359 -42 -768 -60 -847 -4
-21 -11 -85 -35 -332 -8 -85 -13 -102 -32 -117 -43 -34 -170 -124 -194 -137
-13 -7 -24 -17 -24 -23 0 -5 -4 -9 -10 -9 -5 0 -40 -22 -77 -48 -63 -44 -294
-194 -335 -217 -17 -10 -59 -34 -278 -165 -52 -31 -165 -94 -250 -140 -85 -46
-162 -87 -170 -91 -26 -14 -392 -189 -395 -189 -2 0 -37 -16 -78 -35 -41 -19
-77 -35 -81 -35 -3 0 -29 -11 -58 -24 -29 -13 -75 -31 -103 -41 -27 -10 -90
-32 -140 -50 -124 -46 -332 -110 -440 -135 -71 -17 -113 -21 -197 -18 l-107 3
-38 37 c-64 62 -118 72 -194 38 -84 -37 -128 -96 -169 -225 -7 -22 -17 -51
-23 -65 -5 -14 -12 -95 -15 -181 -4 -152 -4 -159 23 -228 30 -79 82 -134 144
-151 79 -22 226 -6 238 26 6 15 15 11 128 -62 28 -17 72 -44 100 -59 27 -15
54 -32 60 -39 37 -44 291 -177 475 -249 146 -57 374 -137 392 -137 8 0 38 -7
68 -15 30 -8 120 -28 200 -44 137 -28 195 -37 383 -61 98 -13 454 -13 567 0
419 46 835 149 1117 276 32 14 81 36 108 49 28 12 70 31 94 41 25 10 79 38
120 62 42 24 105 60 141 80 133 73 489 317 598 409 35 29 66 53 70 53 5 0 20
-26 36 -57 15 -32 53 -100 83 -151 30 -51 57 -109 60 -128 3 -19 8 -34 12 -34
3 0 26 39 51 88 24 48 68 128 96 177 29 50 67 123 84 163 18 40 50 105 71 144
42 78 172 341 210 423 13 28 39 68 60 90 101 111 271 307 420 485 146 176 180
217 209 255 14 18 70 91 126 162 55 70 113 147 130 170 25 35 176 238 252 338
12 17 39 55 60 85 20 30 62 87 92 125 30 39 74 102 97 141 24 38 62 93 85 121
24 28 69 91 100 140 85 131 149 209 158 192 10 -19 18 -65 30 -174 5 -49 16
-148 24 -220 37 -322 48 -669 43 -1255 -5 -559 -14 -771 -55 -1248 -12 -133
-14 -202 -7 -202 5 0 30 19 55 43 25 23 91 81 146 128 55 48 118 104 140 125
22 22 69 63 104 93 123 103 307 298 398 420 15 20 30 38 33 41 13 11 157 207
212 289 169 250 297 506 385 766 72 212 92 289 128 490 54 297 32 635 -58 865
-41 106 -139 296 -193 375 -70 102 -179 221 -253 277 -185 140 -426 196 -592
138 -36 -13 -75 -30 -87 -38 -29 -18 -29 -11 2 44 14 25 49 98 79 162 30 64
73 158 96 207 24 50 60 131 80 180 21 50 72 173 114 275 43 102 104 249 137
328 80 189 148 368 234 612 19 52 54 154 80 225 95 266 160 473 221 710 39
150 47 196 48 275 1 88 -2 100 -31 160 -18 36 -48 84 -67 107 -101 118 -281
168 -461 128z m-3411 -2867 c15 -224 17 -410 7 -523 l-12 -120 -56 -89 c-57
-90 -79 -120 -303 -420 -69 -92 -135 -181 -147 -198 -13 -17 -40 -51 -62 -77
-71 -84 -185 -225 -284 -348 -99 -124 -127 -153 -113 -117 19 46 36 115 46
179 27 180 50 360 60 465 19 204 59 439 80 479 5 9 20 48 34 86 32 93 81 199
115 249 15 23 30 48 33 57 10 26 123 162 175 209 27 25 71 61 97 80 26 19 52
40 59 46 33 29 227 131 253 133 7 1 14 -33 18 -91z"/>
</g>
</svg>
